<?xml version="1.0" standalone="no"?><!DOCTYPE svg PUBLIC "-//W3C//DTD SVG 1.1//EN" "http://www.w3.org/Graphics/SVG/1.1/DTD/svg11.dtd"><svg t="1635233529903" class="icon" viewBox="0 0 1024 1024" version="1.1" xmlns="http://www.w3.org/2000/svg" p-id="4529" width="40" height="40" xmlns:xlink="http://www.w3.org/1999/xlink"><defs><style type="text/css"></style></defs><path d="M512 512m-385.7322666666667 0a385.7322666666667 385.7322666666667 0 1 0 771.4645333333334 0 385.7322666666667 385.7322666666667 0 1 0-771.4645333333334 0Z" fill="#0B5975" p-id="4530"></path><path d="M420.02773333333334 565.0773333333333c0 14.72-1.0752 25.250133333333334-3.2 31.581866666666667a49.638400000000004 49.638400000000004 0 0 1-10.641066666666667 17.766399999999997c-4.9749333333333325 5.5040000000000004-11.989333333333333 9.429333333333332-20.940800000000003 11.784533333333334-8.994133333333334 2.3637333333333337-19.7376 3.5839999999999996-32.187733333333334 3.5839999999999996-13.474133333333333 0-24.584533333333333-1.2458666666666667-33.3056-3.7376-8.7552-2.5002666666666666-15.658666666666667-6.749866666666667-20.778666666666666-12.7488a56.430933333333336 56.430933333333336 0 0 1-11.2128-21.137066666666666c-2.3552-8.081066666666667-3.5328-21.0176-3.5328-38.71573333333333v-9.736533333333334h56.09813333333333v23.936c0 8.746666666666666 0.5717333333333333 14.72 1.6810666666666667 17.979733333333336 1.1434666666666666 3.2341333333333333 4.0447999999999995 4.846933333333332 8.789333333333333 4.846933333333332 7.978666666666667 0 11.980799999999999-6.9632 11.980799999999999-20.949333333333335 0-8.9856-0.5034666666666666-15.7184-1.5189333333333332-20.1984-1.0069333333333332-4.462933333333334-3.968-9.216000000000001-8.96-14.199466666666666-23.227733333333333-16.7424-39.15946666666667-29.201066666666666-47.872-37.41866666666667-14.711466666666666-13.730133333333333-22.084266666666668-33.928533333333334-22.084266666666668-60.60373333333334 0-9.4976 0.5717333333333333-17.706666666666667 1.6810666666666667-24.712533333333333 1.1093333333333333-6.971733333333333 3.4304-13.568 6.9376-19.84a37.9904 37.9904 0 0 1 20.949333333333335-16.836266666666667c8.951466666666667-2.9951999999999996 20.940800000000003-4.471466666666667 35.891200000000005-4.471466666666667 14.481066666666667 0 25.898666666666667 0.8789333333333332 34.24426666666667 2.6282666666666668 8.3456 1.7493333333333332 15.283199999999999 5.589333333333333 20.778666666666666 11.579733333333333 5.495466666666667 5.998933333333333 9.088 13.610666666666667 10.837333333333333 22.826666666666664 1.0154666666666665 5.495466666666667 1.4848 15.590399999999999 1.4848 30.3104v3.3706666666666667h-55.68853333333333v-11.588266666666668c0-6.7328-0.13653333333333334-10.871466666666667-0.3669333333333333-12.356266666666667-1.0154666666666665-5.725866666666667-4.104533333333333-8.618666666666666-9.361066666666666-8.618666666666666-7.236266666666666 0-10.845866666666666 6.7328-10.845866666666666 20.1984 0 10.478933333333334 1.6896 17.979733333333336 5.051733333333333 22.459733333333332 3.3706666666666667 4.471466666666667 13.764266666666666 12.356266666666667 31.249066666666664 23.569066666666668 19.191466666666667 12.219733333333332 31.786666666666665 25.181866666666668 37.77706666666666 38.92053333333333 4.701866666666667 10.726399999999998 7.0656 27.554133333333333 7.0656 50.525866666666666z m178.83306666666667 95.01013333333333h-50.14186666666667c-17.2032 0-28.185599999999997-2.3637333333333337-32.93013333333333-7.1168-3.7034666666666665-3.7376-5.5808-11.8528-5.5808-24.337066666666665a77.48266666666666 77.48266666666666 0 0 1-18.722133333333332-2.2357333333333336 57.6 57.6 0 0 1-17.954133333333335-8.251733333333332c-13.226666666666667-8.465066666666667-21.717333333333332-19.6864-25.4464-33.664-2.4917333333333334-9.216000000000001-3.7034666666666665-25.4208-3.7034666666666665-48.6144v-79.6928c0-11.204266666666665 0.26453333333333334-20.377599999999997 0.9045333333333333-27.477333333333334a83.54133333333333 83.54133333333333 0 0 1 4.309333333333333-20.4032c4.983466666666667-12.962133333333332 13.405866666666666-22.391466666666666 25.250133333333334-28.245333333333335 11.8528-5.8624 26.50453333333333-8.789333333333333 43.92959999999999-8.789333333333333 20.7104 0 37.54666666666667 3.4389333333333334 50.508799999999994 10.308266666666666 12.970666666666666 6.8352 21.725866666666665 17.5104 26.197333333333333 31.991466666666668 1.7493333333333332 5.2223999999999995 2.7221333333333333 12.2624 3.003733333333333 21.11146666666667 0.2304 8.8576 0.3754666666666666 15.522133333333333 0.3754666666666666 20.044800000000002v83.80586666666666c0 20.932266666666663-0.8874666666666666 35.413333333333334-2.6453333333333333 43.400533333333335-3.694933333333333 17.169066666666666-16.554666666666666 28.416-38.519466666666666 33.664 0 6.229333333333333 1.1178666666666668 9.966933333333333 3.3792 11.2128 2.2272 1.2373333333333332 7.2448 1.8517333333333332 14.941866666666666 1.8517333333333332h22.843733333333333v31.4368z m-66.98666666666666-95.01013333333333V431.49653333333333c0-7.739733333333334-0.5888-13.3376-1.8432-16.836266666666667-1.2458666666666667-3.4986666666666664-4.010666666666666-5.248-8.251733333333332-5.248-4.727466666666667 0-7.68 1.8773333333333333-8.797866666666666 5.623466666666667-1.1008 3.7376-1.6725333333333334 11.204266666666665-1.6725333333333334 22.459733333333332v132.05333333333334c0 6.7328 0.6314666666666666 11.946666666666665 1.8858666666666666 15.735466666666667 1.2458666666666667 3.7034666666666665 3.9765333333333337 5.5808 8.2176 5.5808 6.971733333333333-0.008533333333333334 10.461866666666666-8.593066666666665 10.461866666666666-25.787733333333332z m221.86666666666667 63.5648H626.1589333333333V371.2597333333333h66.9696v206.13119999999998h60.6208v51.251200000000004z" fill="#353535" p-id="4531"></path><path d="M420.02773333333334 561.3994666666666c0 14.72-1.0752 25.250133333333334-3.2 31.581866666666667a49.638400000000004 49.638400000000004 0 0 1-10.641066666666667 17.766399999999997c-4.9749333333333325 5.5040000000000004-11.989333333333333 9.429333333333332-20.940800000000003 11.784533333333334-8.994133333333334 2.3637333333333337-19.7376 3.5839999999999996-32.187733333333334 3.5839999999999996-13.474133333333333 0-24.584533333333333-1.2458666666666667-33.3056-3.7376-8.7552-2.5002666666666666-15.658666666666667-6.749866666666667-20.778666666666666-12.7488a56.430933333333336 56.430933333333336 0 0 1-11.2128-21.137066666666666c-2.3552-8.081066666666667-3.5328-21.0176-3.5328-38.71573333333333v-9.736533333333334h56.09813333333333v23.936c0 8.746666666666666 0.5717333333333333 14.72 1.6810666666666667 17.979733333333336 1.1434666666666666 3.2341333333333333 4.0447999999999995 4.846933333333332 8.789333333333333 4.846933333333332 7.978666666666667 0 11.980799999999999-6.9632 11.980799999999999-20.949333333333335 0-8.9856-0.5034666666666666-15.7184-1.5189333333333332-20.1984-1.0069333333333332-4.462933333333334-3.968-9.216000000000001-8.96-14.199466666666666-23.227733333333333-16.7424-39.15946666666667-29.201066666666666-47.872-37.41866666666667-14.711466666666666-13.730133333333333-22.084266666666668-33.928533333333334-22.084266666666668-60.60373333333334 0-9.4976 0.5717333333333333-17.706666666666667 1.6810666666666667-24.712533333333333 1.1093333333333333-6.971733333333333 3.4304-13.568 6.9376-19.84a37.9904 37.9904 0 0 1 20.949333333333335-16.836266666666667c8.951466666666667-2.9951999999999996 20.940800000000003-4.471466666666667 35.891200000000005-4.471466666666667 14.481066666666667 0 25.898666666666667 0.8789333333333332 34.24426666666667 2.6282666666666668 8.3456 1.7493333333333332 15.283199999999999 5.589333333333333 20.778666666666666 11.579733333333333 5.495466666666667 5.998933333333333 9.088 13.610666666666667 10.837333333333333 22.826666666666664 1.0154666666666665 5.495466666666667 1.4848 15.590399999999999 1.4848 30.3104v3.3706666666666667h-55.68853333333333v-11.588266666666668c0-6.7328-0.13653333333333334-10.871466666666667-0.3669333333333333-12.356266666666667-1.0154666666666665-5.725866666666667-4.104533333333333-8.618666666666666-9.361066666666666-8.618666666666666-7.236266666666666 0-10.845866666666666 6.7328-10.845866666666666 20.1984 0 10.478933333333334 1.6896 17.979733333333336 5.051733333333333 22.459733333333332 3.3706666666666667 4.471466666666667 13.764266666666666 12.356266666666667 31.249066666666664 23.569066666666668 19.191466666666667 12.219733333333332 31.786666666666665 25.181866666666668 37.77706666666666 38.92053333333333 4.701866666666667 10.726399999999998 7.0656 27.562666666666665 7.0656 50.525866666666666z m178.83306666666667 95.01866666666666h-50.14186666666667c-17.2032 0-28.185599999999997-2.3637333333333337-32.93013333333333-7.1168-3.7034666666666665-3.7376-5.5808-11.8528-5.5808-24.337066666666665a77.48266666666666 77.48266666666666 0 0 1-18.722133333333332-2.2357333333333336 57.6 57.6 0 0 1-17.954133333333335-8.251733333333332c-13.226666666666667-8.465066666666667-21.717333333333332-19.6864-25.4464-33.664-2.4917333333333334-9.216000000000001-3.7034666666666665-25.4208-3.7034666666666665-48.6144v-79.6928c0-11.204266666666665 0.26453333333333334-20.377599999999997 0.9045333333333333-27.477333333333334a83.54133333333333 83.54133333333333 0 0 1 4.309333333333333-20.4032c4.983466666666667-12.962133333333332 13.405866666666666-22.391466666666666 25.250133333333334-28.245333333333335 11.8528-5.8624 26.50453333333333-8.789333333333333 43.92959999999999-8.789333333333333 20.7104 0 37.54666666666667 3.4389333333333334 50.508799999999994 10.308266666666666 12.970666666666666 6.8352 21.725866666666665 17.5104 26.197333333333333 31.991466666666668 1.7493333333333332 5.2223999999999995 2.7221333333333333 12.2624 3.003733333333333 21.11146666666667 0.2304 8.8576 0.3754666666666666 15.522133333333333 0.3754666666666666 20.044800000000002v83.80586666666666c0 20.932266666666663-0.8874666666666666 35.413333333333334-2.6453333333333333 43.400533333333335-3.694933333333333 17.169066666666666-16.554666666666666 28.416-38.519466666666666 33.664 0 6.229333333333333 1.1178666666666668 9.966933333333333 3.3792 11.2128 2.2272 1.2373333333333332 7.2448 1.8517333333333332 14.941866666666666 1.8517333333333332h22.843733333333333v31.4368z m-66.98666666666666-95.01866666666666V427.8186666666667c0-7.739733333333334-0.5888-13.3376-1.8432-16.836266666666667-1.2458666666666667-3.4986666666666664-4.010666666666666-5.248-8.251733333333332-5.248-4.727466666666667 0-7.68 1.8773333333333333-8.797866666666666 5.623466666666667-1.1008 3.7376-1.6725333333333334 11.204266666666665-1.6725333333333334 22.459733333333332v132.05333333333334c0 6.7328 0.6314666666666666 11.946666666666665 1.8858666666666666 15.735466666666667 1.2458666666666667 3.7034666666666665 3.9765333333333337 5.5808 8.2176 5.5808 6.971733333333333 0 10.461866666666666-8.584533333333333 10.461866666666666-25.787733333333332z m221.86666666666667 63.5648H626.1589333333333V367.58186666666666h66.9696v206.13119999999998h60.6208v51.251200000000004z" fill="#FFFFFF" p-id="4532"></path></svg>